<?xml version="1.0" encoding="UTF-8" standalone="no"?>
<!DOCTYPE svg PUBLIC "-//W3C//DTD SVG 1.1//EN" "http://www.w3.org/Graphics/SVG/1.1/DTD/svg11.dtd">
<svg width="100%" height="100%" viewBox="0 0 500 400" version="1.1" xmlns="http://www.w3.org/2000/svg" xmlns:xlink="http://www.w3.org/1999/xlink" xml:space="preserve" xmlns:serif="http://www.serif.com/" style="fill-rule:evenodd;clip-rule:evenodd;stroke-linejoin:round;stroke-miterlimit:2;">
    <g transform="matrix(1.28733,0,0,1.28733,1.30266e-13,-49.9997)">
        <g>
            <path d="M307.6,153.199C296.4,153.199 285.6,155.599 275.6,159.599L262,133.199L262,91.199C262,88.799 260.4,86.399 258,85.599L226,73.599C222.8,72.399 219.6,73.999 218.4,77.199C217.2,80.399 218.8,83.599 222,84.799L250.4,95.199L250.4,129.199L133.2,129.199L133.2,117.599L147.6,117.599C150.8,117.599 153.6,114.799 153.6,111.599C153.6,108.399 150.8,105.599 147.6,105.599L110.4,105.599C107.2,105.599 104.4,108.399 104.4,111.599C104.4,114.799 107.2,117.599 110.4,117.599L121.2,117.599L121.2,133.999L109.6,159.199C100.8,155.599 90.8,153.599 80.8,153.599C36.4,153.599 0,189.599 0,234.399C0,279.199 36,315.199 80.8,315.199C123.2,315.199 158,281.999 161.2,240.399L187.2,240.399C189.2,240.399 190.8,239.599 192,237.999L254.8,147.199L264.8,165.999C242,179.599 226.8,205.199 226.8,233.999C226.8,278.399 262.8,314.799 307.6,314.799C352.4,314.799 388.4,278.799 388.4,233.999C388.4,189.199 352.4,153.199 307.6,153.199ZM80.8,302.799C42.8,302.799 12,271.999 12,233.999C12,195.999 42.8,165.199 80.8,165.199C89.2,165.199 97.2,166.799 104.4,169.599L75.2,231.599L75.2,231.999C74.8,232.799 74.8,233.199 74.8,233.999L74.8,234.399C74.8,235.199 74.8,235.599 75.2,236.399L75.2,236.799C75.2,237.199 75.2,237.199 75.6,237.599C75.6,237.999 76,237.999 76.4,238.399L76.4,238.799C76.8,239.199 77.6,239.599 78,239.999L78.4,239.999C79.2,240.399 79.6,240.399 80.4,240.399L148.8,240.399C146,275.199 116.8,302.799 80.8,302.799ZM90,227.999L115.2,174.799C134,185.599 147.2,205.199 149.2,227.999L90,227.999ZM184,227.999L160.8,227.999C158.8,200.399 142.8,176.799 120,163.599L130.8,140.799L244,140.799L184,227.999ZM307.2,302.799C269.2,302.799 238.4,271.999 238.4,233.999C238.4,209.599 251.2,188.399 270.4,175.999L302,236.799C303.2,238.799 305.2,239.999 307.2,239.999C308,239.999 309.2,239.599 310,239.199C312.8,237.599 314,233.999 312.4,231.199L280.8,170.399C289.2,167.199 298,165.199 307.2,165.199C345.2,165.199 376,195.999 376,233.999C376,271.999 345.2,302.799 307.2,302.799Z" style="fill-rule:nonzero;"/>
        </g>
    </g>
</svg>
